<svg width="12" height="12" viewBox="0 0 12 12" fill="none" xmlns="http://www.w3.org/2000/svg">
<path d="M10.5 5.00024C10.5 8.49974 6 11.4997 6 11.4997C6 11.4997 1.5 8.49974 1.5 5.00024C1.5 4.4093 1.6164 3.82413 1.84254 3.27817C2.06869 2.7322 2.40016 2.23613 2.81802 1.81826C3.23588 1.4004 3.73196 1.06893 4.27792 0.842786C4.82389 0.61664 5.40905 0.500244 6 0.500244C6.59095 0.500244 7.17611 0.61664 7.72208 0.842786C8.26804 1.06893 8.76412 1.4004 9.18198 1.81826C9.59984 2.23613 9.93131 2.7322 10.1575 3.27817C10.3836 3.82413 10.5 4.4093 10.5 5.00024V5.00024Z" stroke="#253766" stroke-width="0.5" stroke-linecap="round" stroke-linejoin="round"/>
<path d="M6 6.50024C6.39782 6.50024 6.77936 6.34221 7.06066 6.0609C7.34196 5.7796 7.5 5.39807 7.5 5.00024C7.5 4.60242 7.34196 4.22089 7.06066 3.93958C6.77936 3.65828 6.39782 3.50024 6 3.50024C5.60218 3.50024 5.22064 3.65828 4.93934 3.93958C4.65804 4.22089 4.5 4.60242 4.5 5.00024C4.5 5.39807 4.65804 5.7796 4.93934 6.0609C5.22064 6.34221 5.60218 6.50024 6 6.50024V6.50024Z" stroke="#253766" stroke-width="0.5" stroke-linecap="round" stroke-linejoin="round"/>
</svg>
